<svg viewBox="0 0 94 29" fill="none" xmlns="http://www.w3.org/2000/svg">
<path d="M3.45692 23L0.420436 7.72415H3.19999L4.53137 15.4321C4.65594 16.2419 4.78052 17.0594 4.90509 17.8847C5.04524 18.6944 5.16981 19.5041 5.27881 20.3139H5.37224C5.54353 19.5041 5.70703 18.6944 5.86275 17.8847C6.03404 17.0594 6.20533 16.2419 6.37662 15.4321L8.24522 7.72415H10.6043L12.4729 15.4321C12.6442 16.2263 12.8155 17.036 12.9868 17.8613C13.1581 18.6711 13.3294 19.4886 13.5007 20.3139H13.5941C13.7187 19.4886 13.8433 18.6711 13.9678 17.8613C14.0924 17.0516 14.2092 16.2419 14.3182 15.4321L15.6496 7.72415H18.2423L15.3226 23H11.9591L10.0671 14.965C9.94254 14.3733 9.81797 13.7815 9.69339 13.1898C9.58439 12.5981 9.48318 12.0142 9.38975 11.438H9.29632C9.18731 12.0142 9.07053 12.5981 8.94595 13.1898C8.83695 13.7815 8.72016 14.3733 8.59559 14.965L6.75034 23H3.45692ZM20.3866 23V11.5314H23.0727V23H20.3866ZM21.7413 9.52268C21.2586 9.52268 20.8693 9.38253 20.5735 9.10224C20.2776 8.82195 20.1297 8.44823 20.1297 7.98108C20.1297 7.5295 20.2776 7.16356 20.5735 6.88327C20.8693 6.60298 21.2586 6.46284 21.7413 6.46284C22.2241 6.46284 22.6134 6.60298 22.9092 6.88327C23.2051 7.16356 23.353 7.5295 23.353 7.98108C23.353 8.44823 23.2051 8.82195 22.9092 9.10224C22.6134 9.38253 22.2241 9.52268 21.7413 9.52268ZM31.1946 23.2803C30.1669 23.2803 29.1703 23.0856 28.2048 22.6964C27.2549 22.3071 26.4141 21.7543 25.6822 21.038L27.2705 19.1927C27.8155 19.7066 28.4384 20.127 29.1391 20.454C29.8398 20.7655 30.5406 20.9212 31.2413 20.9212C32.1133 20.9212 32.7751 20.7421 33.2267 20.384C33.6783 20.0258 33.9041 19.5509 33.9041 18.9591C33.9041 18.3207 33.6783 17.8613 33.2267 17.581C32.7907 17.3008 32.2301 17.0127 31.545 16.7168L29.4428 15.8059C28.9445 15.5879 28.454 15.3076 27.9712 14.965C27.5041 14.6224 27.1148 14.1864 26.8034 13.657C26.5075 13.1275 26.3596 12.4891 26.3596 11.7416C26.3596 10.9319 26.5776 10.2078 27.0136 9.56939C27.4652 8.91538 28.0725 8.40152 28.8355 8.02779C29.6141 7.6385 30.5016 7.44386 31.4982 7.44386C32.3858 7.44386 33.2423 7.62293 34.0676 7.98108C34.8929 8.32366 35.6014 8.79081 36.1931 9.38253L34.815 11.111C34.3323 10.7061 33.8184 10.3869 33.2734 10.1533C32.744 9.91976 32.1522 9.80297 31.4982 9.80297C30.7819 9.80297 30.198 9.96647 29.7464 10.2935C29.3104 10.6049 29.0924 11.0409 29.0924 11.6015C29.0924 11.9908 29.2014 12.3178 29.4194 12.5825C29.653 12.8317 29.9566 13.0497 30.3304 13.2365C30.7041 13.4078 31.1012 13.5791 31.5216 13.7504L33.6004 14.6146C34.5036 15.0039 35.2432 15.5178 35.8194 16.1562C36.3955 16.7791 36.6836 17.6433 36.6836 18.7489C36.6836 19.5742 36.4656 20.3295 36.0296 21.0146C35.5936 21.6998 34.9629 22.2526 34.1376 22.673C33.3279 23.0779 32.3469 23.2803 31.1946 23.2803ZM44.0161 23.2803C42.9728 23.2803 42.0307 23.0467 41.1898 22.5796C40.3645 22.0968 39.7027 21.4117 39.2044 20.5241C38.7217 19.6209 38.4803 18.5387 38.4803 17.2774C38.4803 16.0005 38.745 14.9183 39.2745 14.0307C39.8039 13.1275 40.5047 12.4424 41.3767 11.9752C42.2643 11.4925 43.2141 11.2511 44.2263 11.2511C44.9582 11.2511 45.5966 11.3757 46.1416 11.6249C46.6866 11.874 47.1693 12.1777 47.5898 12.5358L46.2818 14.2876C45.9859 14.0229 45.6822 13.8205 45.3708 13.6803C45.0594 13.5246 44.7246 13.4468 44.3664 13.4468C43.4477 13.4468 42.6925 13.7971 42.1008 14.4978C41.5246 15.1986 41.2365 16.1251 41.2365 17.2774C41.2365 18.4141 41.5168 19.3329 42.0774 20.0336C42.6535 20.7343 43.3932 21.0847 44.2964 21.0847C44.7479 21.0847 45.1684 20.9912 45.5577 20.8044C45.9625 20.602 46.3285 20.3684 46.6555 20.1037L47.7533 21.8788C47.2238 22.346 46.6321 22.6964 45.9781 22.9299C45.3241 23.1635 44.6701 23.2803 44.0161 23.2803ZM50.017 23V6.50955H52.7031V10.7606L52.6097 12.9796C53.0924 12.528 53.6296 12.1309 54.2213 11.7884C54.8131 11.4302 55.4982 11.2511 56.2768 11.2511C57.507 11.2511 58.4023 11.6482 58.9629 12.4424C59.5235 13.2365 59.8038 14.3577 59.8038 15.8059V23H57.1177V16.1562C57.1177 15.2064 56.9775 14.5368 56.6972 14.1475C56.4169 13.7582 55.9576 13.5635 55.3191 13.5635C54.8208 13.5635 54.377 13.6881 53.9878 13.9373C53.614 14.1708 53.1858 14.5212 52.7031 14.9884V23H50.017ZM67.7364 23.2803C66.7865 23.2803 65.899 23.0467 65.0737 22.5796C64.2484 22.0968 63.5788 21.4117 63.0649 20.5241C62.551 19.6209 62.2941 18.5387 62.2941 17.2774C62.2941 16.0005 62.551 14.9183 63.0649 14.0307C63.5788 13.1275 64.2484 12.4424 65.0737 11.9752C65.899 11.4925 66.7865 11.2511 67.7364 11.2511C68.7019 11.2511 69.5972 11.4925 70.4225 11.9752C71.2478 12.4424 71.9174 13.1275 72.4313 14.0307C72.9452 14.9183 73.2021 16.0005 73.2021 17.2774C73.2021 18.5387 72.9452 19.6209 72.4313 20.5241C71.9174 21.4117 71.2478 22.0968 70.4225 22.5796C69.5972 23.0467 68.7019 23.2803 67.7364 23.2803ZM67.7364 21.0847C68.5773 21.0847 69.2391 20.7343 69.7218 20.0336C70.2045 19.3329 70.4459 18.4141 70.4459 17.2774C70.4459 16.1251 70.2045 15.1986 69.7218 14.4978C69.2391 13.7971 68.5773 13.4468 67.7364 13.4468C66.8955 13.4468 66.2337 13.7971 65.751 14.4978C65.2839 15.1986 65.0503 16.1251 65.0503 17.2774C65.0503 18.4141 65.2839 19.3329 65.751 20.0336C66.2337 20.7343 66.8955 21.0847 67.7364 21.0847ZM80.5557 23.2803C79.6058 23.2803 78.7183 23.0467 77.893 22.5796C77.0676 22.0968 76.3981 21.4117 75.8842 20.5241C75.3703 19.6209 75.1134 18.5387 75.1134 17.2774C75.1134 16.0005 75.3703 14.9183 75.8842 14.0307C76.3981 13.1275 77.0676 12.4424 77.893 11.9752C78.7183 11.4925 79.6058 11.2511 80.5557 11.2511C81.5212 11.2511 82.4165 11.4925 83.2418 11.9752C84.0671 12.4424 84.7367 13.1275 85.2506 14.0307C85.7645 14.9183 86.0214 16.0005 86.0214 17.2774C86.0214 18.5387 85.7645 19.6209 85.2506 20.5241C84.7367 21.4117 84.0671 22.0968 83.2418 22.5796C82.4165 23.0467 81.5212 23.2803 80.5557 23.2803ZM80.5557 21.0847C81.3966 21.0847 82.0584 20.7343 82.5411 20.0336C83.0238 19.3329 83.2652 18.4141 83.2652 17.2774C83.2652 16.1251 83.0238 15.1986 82.5411 14.4978C82.0584 13.7971 81.3966 13.4468 80.5557 13.4468C79.7148 13.4468 79.053 13.7971 78.5703 14.4978C78.1032 15.1986 77.8696 16.1251 77.8696 17.2774C77.8696 18.4141 78.1032 19.3329 78.5703 20.0336C79.053 20.7343 79.7148 21.0847 80.5557 21.0847ZM91.2962 23.2803C90.3463 23.2803 89.6689 22.9922 89.2641 22.4161C88.8748 21.8399 88.6801 21.0535 88.6801 20.0569V6.50955H91.3663V20.1971C91.3663 20.5241 91.4285 20.7577 91.5531 20.8978C91.6777 21.0224 91.81 21.0847 91.9502 21.0847C92.0125 21.0847 92.067 21.0847 92.1137 21.0847C92.176 21.0691 92.2616 21.0535 92.3706 21.038L92.721 23.0467C92.5653 23.109 92.3628 23.1635 92.1137 23.2102C91.8801 23.2569 91.6076 23.2803 91.2962 23.2803Z" fill="black"/>
<circle cx="67.6515" cy="7.12123" r="2.13636" fill="#09B451"/>
<circle cx="80.4696" cy="7.12123" r="2.13636" fill="#09B451"/>
</svg>
