<svg viewBox="0 0 37 37" fill="none" xmlns="http://www.w3.org/2000/svg">
<rect x="0.418457" y="0.744141" width="35.8512" height="35.8512" rx="17.9256" fill="#E1FFEE"/>
<path d="M13.7346 15.0847V12.0118C13.7346 11.4684 13.9505 10.9474 14.3347 10.5632C14.7189 10.179 15.2399 9.96313 15.7833 9.96313H19.8805C20.4239 9.96313 20.945 10.179 21.3292 10.5632C21.7133 10.9474 21.9292 11.4684 21.9292 12.0118V15.0847H25.0021C25.5455 15.0847 26.0666 15.3006 26.4507 15.6848C26.8349 16.069 27.0508 16.59 27.0508 17.1334V26.3522C27.0508 26.8956 26.8349 27.4166 26.4507 27.8008C26.0666 28.185 25.5455 28.4009 25.0021 28.4009H10.6617C10.1183 28.4009 9.59726 28.185 9.21307 27.8008C8.82888 27.4166 8.61304 26.8956 8.61304 26.3522V17.1334C8.61304 16.59 8.82888 16.069 9.21307 15.6848C9.59726 15.3006 10.1183 15.0847 10.6617 15.0847H13.7346ZM10.6617 17.1334V26.3522H25.0021V17.1334H21.9271V20.2063H19.8805V17.1334H15.7833V20.2063H13.7346V17.1334H10.6617ZM15.7833 15.0847H19.8805V12.0118H15.7833V15.0847Z" fill="#09B451"/>
</svg>
