<svg viewBox="0 0 19 19" fill="none" xmlns="http://www.w3.org/2000/svg">
<rect x="0.829346" y="-0.00415039" width="18.1016" height="18.1016" rx="9.05082" fill="#E1FFEE"/>
<path d="M9.88034 9.04672C10.3604 9.04672 10.8208 8.856 11.1603 8.51653C11.4998 8.17706 11.6905 7.71664 11.6905 7.23655C11.6905 6.75647 11.4998 6.29605 11.1603 5.95658C10.8208 5.6171 10.3604 5.42639 9.88034 5.42639C9.40025 5.42639 8.93983 5.6171 8.60036 5.95658C8.26089 6.29605 8.07017 6.75647 8.07017 7.23655C8.07017 7.71664 8.26089 8.17706 8.60036 8.51653C8.93983 8.856 9.40025 9.04672 9.88034 9.04672ZM11.0871 7.23655C11.0871 7.55661 10.96 7.86356 10.7337 8.08987C10.5073 8.31619 10.2004 8.44333 9.88034 8.44333C9.56028 8.44333 9.25333 8.31619 9.02702 8.08987C8.8007 7.86356 8.67356 7.55661 8.67356 7.23655C8.67356 6.9165 8.8007 6.60955 9.02702 6.38324C9.25333 6.15692 9.56028 6.02978 9.88034 6.02978C10.2004 6.02978 10.5073 6.15692 10.7337 6.38324C10.96 6.60955 11.0871 6.9165 11.0871 7.23655ZM13.5007 12.0637C13.5007 12.667 12.8973 12.667 12.8973 12.667H6.8634C6.8634 12.667 6.26001 12.667 6.26001 12.0637C6.26001 11.4603 6.8634 9.65011 9.88034 9.65011C12.8973 9.65011 13.5007 11.4603 13.5007 12.0637ZM12.8973 12.0612C12.8967 11.9128 12.8044 11.4663 12.3953 11.0572C12.0018 10.6638 11.2615 10.2535 9.88034 10.2535C8.49858 10.2535 7.75882 10.6638 7.36542 11.0572C6.95632 11.4663 6.8646 11.9128 6.8634 12.0612H12.8973Z" fill="#09B451"/>
</svg>
